PathFileType	4	(X/Y/Z)	s08c0001.trc
DataRate	CameraRate	NumFrames	NumMarkers	Units	OrigDataRate	OrigDataStartFrame	OrigNumFrames
200	200	4	49	mm	200	1000	2000
Frame#	Time	racr			lacr			c7			jug			rlel			rdr			llel			ldr			s2			lic			ric			lasi			rasi			rpsi			lpsi			rgt			lgt			rth1			rth2			rth3			rth4			rlfc			rmfc			rsh1			rsh2			rsh3			rsh4			rlmal			rmmal			rcal			rtoe			rmt5			rmt1			lth1			lth2			lth4			lth3			llfc			lmfc			llmal			lmmal			lcal			lmt1			lmt5			lsh1			lsh2			lsh3			lsh4			ltoe			
		X1	Y1	Z1	X2	Y2	Z2	X3	Y3	Z3	X4	Y4	Z4	X5	Y5	Z5	X6	Y6	Z6	X7	Y7	Z7	X8	Y8	Z8	X9	Y9	Z9	X10	Y10	Z10	X11	Y11	Z11	X12	Y12	Z12	X13	Y13	Z13	X14	Y14	Z14	X15	Y15	Z15	X16	Y16	Z16	X17	Y17	Z17	X18	Y18	Z18	X19	Y19	Z19	X20	Y20	Z20	X21	Y21	Z21	X22	Y22	Z22	X23	Y23	Z23	X24	Y24	Z24	X25	Y25	Z25	X26	Y26	Z26	X27	Y27	Z27	X28	Y28	Z28	X29	Y29	Z29	X30	Y30	Z30	X31	Y31	Z31	X32	Y32	Z32	X33	Y33	Z33	X34	Y34	Z34	X35	Y35	Z35	X36	Y36	Z36	X37	Y37	Z37	X38	Y38	Z38	X39	Y39	Z39	X40	Y40	Z40	X41	Y41	Z41	X42	Y42	Z42	X43	Y43	Z43	X44	Y44	Z44	X45	Y45	Z45	X46	Y46	Z46	X47	Y47	Z47	X48	Y48	Z48	X49	Y49	Z49	
1000	5.0000	422.762177	1529.487671	596.941650	410.663940	1545.250732	200.092560	363.752563	1584.054932	397.307587	494.185364	1487.728882	395.681366	381.317169	1236.183838	682.600647	455.509003	959.018127	793.303894	388.210938	1245.339600	98.812622	444.610992	974.057068	-5.914755	328.070038	1028.717407	404.961792	474.947388	1094.376953	239.297775	481.282867	1099.999634	556.146179	524.063538	1036.632812	269.938843	537.149841	1033.571899	521.487122	350.250885	1068.206177	452.707916	348.715729	1076.089478	353.291321	424.210907	955.469971	577.854858	428.188904	943.863892	212.441696	436.907440	804.098083	593.551758	458.415253	718.313538	589.064026	495.437103	718.908691	580.855530	435.040955	635.063660	579.013489	438.560150	511.877502	559.619934	422.737274	500.057617	456.206573	398.724609	387.287689	594.134460	421.812805	301.158386	576.335510	398.399414	218.278503	569.594788	448.336853	305.924927	546.176392	392.503632	97.717789	555.742004	407.369049	122.437912	470.075256	321.407928	65.420731	507.960846	612.128418	79.311111	510.264404	535.348938	47.907688	577.130005	538.675720	47.750107	464.046906	445.034332	815.178345	190.070190	464.417297	729.898438	193.758133	500.511322	730.675842	202.191910	437.509491	645.559326	196.883759	431.715881	518.939453	217.298065	436.992126	496.370453	315.792175	381.931335	107.107010	221.748886	412.085144	126.383774	302.040192	325.143707	74.293137	264.485596	541.975403	47.183937	295.892914	528.709595	43.048748	181.184021	409.792908	394.265381	190.871948	423.205841	310.740662	208.022598	394.338257	227.221619	207.751221	444.548828	313.146149	240.353271	610.543091	81.624390	243.155334	
1001	5.0050	422.797394	1529.485352	596.959045	410.655334	1545.260010	200.095642	363.786163	1584.062622	397.302887	494.185272	1487.706543	395.698608	381.315033	1236.193481	682.616638	455.513184	959.050720	793.334351	388.211151	1245.349365	98.825546	444.609802	974.071106	-5.919601	328.077240	1028.720459	404.980316	474.929657	1094.379761	239.316162	481.295013	1099.994507	556.154053	524.063538	1036.642700	269.954376	537.139343	1033.551270	521.492004	350.264679	1068.209229	452.718689	348.693909	1076.090454	353.308533	424.220764	955.477661	577.870667	428.194427	943.854858	212.450150	436.918304	804.096680	593.557373	458.429596	718.300171	589.068542	495.449066	718.887695	580.852905	435.055786	635.083191	579.021729	438.566986	511.880676	559.642578	422.732239	500.052887	456.206696	398.737122	387.283478	594.142639	421.802582	301.143799	576.321838	398.409241	218.278488	569.595276	448.389496	305.936737	546.195679	392.508484	97.723007	555.740967	407.390106	122.423996	470.065460	321.421661	65.420158	507.951141	612.139099	79.359581	510.272156	535.393494	47.881096	577.125061	538.642700	47.777309	464.037994	445.026459	815.178040	190.068253	464.405182	729.872437	193.801331	500.515228	730.672729	202.207214	437.486359	645.546204	196.868530	431.702759	518.945679	217.314163	436.994843	496.362701	315.791473	381.930573	107.108337	221.747849	412.061462	126.401619	302.031494	325.151886	74.282181	264.487946	541.979248	47.210323	295.884583	528.710999	43.065830	181.191467	409.774200	394.272461	190.864822	423.203979	310.756317	208.038940	394.311066	227.209885	207.761292	444.524109	313.136230	240.347916	610.540222	81.616570	243.177780	
1002	5.0100	422.793457	1529.483032	596.962585	410.651550	1545.267334	200.111603	363.752686	1584.052612	397.333771	494.179047	1487.721924	395.709808	381.312347	1236.195312	682.642944	455.515533	959.060181	793.363220	388.211212	1245.366089	98.823334	444.620148	974.080688	-5.911251	328.070160	1028.721558	404.979401	474.918854	1094.368896	239.321487	481.290924	1099.988403	556.160828	524.053711	1036.644775	269.962067	537.148560	1033.558716	521.487305	350.252258	1068.197144	452.733978	348.693024	1076.083008	353.312958	424.221161	955.477539	577.874939	428.190369	943.866760	212.463913	436.907043	804.095398	593.559448	458.422302	718.318359	589.075806	495.457336	718.905029	580.869995	434.950439	635.008240	578.940918	438.552185	511.877838	559.628113	422.756622	500.053955	456.221619	398.727325	387.277222	594.122192	421.821533	301.169220	576.332336	398.408051	218.267593	569.593872	448.386871	305.950745	546.205933	392.497955	97.731750	555.740234	407.370361	122.423454	470.045013	321.405396	65.432098	507.939514	612.143494	79.339638	510.266937	535.430481	47.860554	577.131958	538.675720	47.750107	464.046875	445.006989	815.187561	190.082977	464.388306	729.900330	193.787735	500.515076	730.700439	202.207321	437.482147	645.570618	196.869980	431.701874	518.930908	217.292648	437.010193	496.368835	315.805176	381.929474	107.108955	221.749191	412.072449	126.373276	302.018860	325.151154	74.283241	264.487671	541.955688	47.178478	295.879059	528.728882	43.046169	181.172287	409.772766	394.284210	190.871536	423.174438	310.748352	208.003830	394.313477	227.217010	207.750443	444.524139	313.135345	240.348083	610.534302	81.622177	243.163467	
1003	5.0150	422.785919	1529.492676	596.984558	410.650208	1545.285645	200.130692	363.775391	1584.076050	397.337097	494.191925	1487.713379	395.718414	381.299530	1236.204956	682.653809	455.514801	959.071960	793.394348	388.219910	1245.361328	98.829369	444.617676	974.093018	-5.921188	328.055206	1028.720093	405.003235	474.918488	1094.359619	239.327301	481.299225	1099.994141	556.166138	524.054077	1036.645630	269.965179	537.148071	1033.557739	521.486572	350.249847	1068.204102	452.738098	348.696472	1076.073975	353.336090	424.216919	955.470093	577.877014	428.176788	943.871460	212.469223	436.916718	804.090515	593.567566	458.419067	718.309998	589.076904	495.436737	718.903687	580.866333	435.040436	635.062012	579.038330	438.542969	511.885162	559.643433	422.726013	500.041046	456.229980	398.728058	387.282135	594.140381	421.787598	301.154816	576.328552	398.399567	218.280884	569.599792	448.346405	305.934937	546.197815	392.510162	97.739563	555.739502	407.408142	122.436691	470.062347	321.400360	65.422447	507.941315	612.137756	79.315689	510.242523	535.410217	47.868092	577.136780	538.678711	47.765041	464.035828	445.009308	815.176086	190.077408	464.376434	729.893555	193.775131	500.478119	730.700256	202.211502	437.472717	645.562439	196.887680	431.699402	518.921265	217.314789	436.983734	496.364227	315.797028	381.900909	107.117126	221.739197	412.079498	126.389496	302.014252	325.151154	74.283241	264.487671	541.973022	47.185230	295.868805	528.697327	43.067673	181.174698	409.762634	394.283936	190.866623	423.202789	310.739594	208.034637	394.306641	227.204178	207.763733	444.519714	313.151062	240.370178	610.530701	81.616776	243.163315	
